<?xml version="1.0" encoding="UTF-8" standalone="no"?>
<!DOCTYPE svg PUBLIC "-//W3C//DTD SVG 1.1//EN" "http://www.w3.org/Graphics/SVG/1.1/DTD/svg11.dtd">
<svg width="100%" height="100%" viewBox="0 0 2181 559" version="1.1" xmlns="http://www.w3.org/2000/svg" xmlns:xlink="http://www.w3.org/1999/xlink" xml:space="preserve" xmlns:serif="http://www.serif.com/" style="fill-rule:evenodd;clip-rule:evenodd;stroke-linecap:round;stroke-linejoin:round;stroke-miterlimit:1.5;">
    <g transform="matrix(1,0,0,1,-725.136,-1061.1)">
        <path d="M2905.75,1110L1327.85,1110L725.136,1620L2539.54,1620L2905.75,1110Z" style="fill:rgb(0,65,31);"/>
        <ellipse cx="2131.44" cy="1318.96" rx="113.329" ry="93.645" style="fill:white;stroke:black;stroke-width:22.92px;"/>
        <path d="M2169.97,1256.2L2170.91,1281.25" style="fill:none;stroke:black;stroke-width:18.75px;"/>
        <g transform="matrix(1,0,0,1,0.0890349,81.0241)">
            <path d="M2169.97,1256.2L2170.91,1281.25" style="fill:none;stroke:black;stroke-width:18.75px;"/>
        </g>
        <g transform="matrix(-3.07356,0,0,2.66504,8744.81,-2068.59)">
            <path d="M2169.97,1256.2L2170.91,1281.25" style="fill:none;stroke:black;stroke-width:6.52px;"/>
        </g>
        <g transform="matrix(-426.504,0,0,-2.0701,927514,3911.96)">
            <path d="M2169.97,1256.2L2170.91,1281.25" style="fill:none;stroke:black;stroke-width:0.06px;"/>
        </g>
        <g transform="matrix(-116.064,1.82526e-13,8.85915e-16,6.67071,253799,-7155.36)">
            <path d="M2169.97,1256.2L2170.91,1281.25" style="fill:none;stroke:black;stroke-width:0.23px;"/>
        </g>
        <g transform="matrix(-273.427,7.23841e-14,2.08707e-15,2.6454,594946,-2066.71)">
            <path d="M2169.97,1256.2L2170.91,1281.25" style="fill:none;stroke:black;stroke-width:0.1px;"/>
        </g>
        <g transform="matrix(-86.5064,-105.827,-3.14325,2.5694,193298,227671)">
            <path d="M2169.97,1256.2L2170.91,1281.25" style="fill:none;stroke:black;stroke-width:0.19px;"/>
        </g>
        <path d="M2429.68,1171.44L2372.31,1116.04L2425.7,1167.6L2439.21,1107.06L2429.68,1171.44L2512.2,1146.97" style="fill:none;stroke:black;stroke-width:22.92px;"/>
        <g transform="matrix(1,0,0,1,-6.97085,357.914)">
            <path d="M2429.68,1171.44L2372.31,1116.04L2425.7,1167.6L2439.21,1107.06L2429.68,1171.44L2512.2,1146.97" style="fill:none;stroke:black;stroke-width:22.92px;"/>
        </g>
        <g transform="matrix(1,0,0,1,-1042.62,-12.5588)">
            <path d="M2429.68,1171.44L2372.31,1116.04L2425.7,1167.6L2439.21,1107.06L2429.68,1171.44L2512.2,1146.97" style="fill:none;stroke:black;stroke-width:22.92px;"/>
        </g>
        <g transform="matrix(1,0,0,1,-699.102,381.498)">
            <path d="M2429.68,1171.44L2372.31,1116.04L2425.7,1167.6L2439.21,1107.06L2429.68,1171.44L2512.2,1146.97" style="fill:none;stroke:black;stroke-width:22.92px;"/>
        </g>
        <g transform="matrix(1,0,0,1,-570.798,-34.4959)">
            <path d="M2429.68,1171.44L2372.31,1116.04L2425.7,1167.6L2439.21,1107.06L2429.68,1171.44L2512.2,1146.97" style="fill:none;stroke:black;stroke-width:22.92px;"/>
        </g>
        <path d="M1117.47,1527.12L1070.31,1490.67L1117.47,1527.12Z" style="fill:none;stroke:black;stroke-width:22.92px;"/>
        <path d="M1126.28,1486.75L1117.47,1527.12L1218.36,1489.75" style="fill:none;stroke:black;stroke-width:22.92px;"/>
    </g>
</svg>
