<?xml version="1.0" encoding="UTF-8" standalone="no"?>
<!DOCTYPE svg PUBLIC "-//W3C//DTD SVG 1.1//EN" "http://www.w3.org/Graphics/SVG/1.1/DTD/svg11.dtd">
<svg width="100%" height="100%" viewBox="0 0 2181 1117" version="1.1" xmlns="http://www.w3.org/2000/svg" xmlns:xlink="http://www.w3.org/1999/xlink" xml:space="preserve" xmlns:serif="http://www.serif.com/" style="fill-rule:evenodd;clip-rule:evenodd;stroke-linecap:round;stroke-linejoin:round;stroke-miterlimit:1.5;">
    <g transform="matrix(1,0,0,1,-725.136,-503.974)">
        <path d="M2905.75,1110L1327.85,1110L725.136,1620L2539.54,1620L2905.75,1110Z" style="fill:rgb(0,65,31);"/>
        <path d="M2429.68,1171.44L2372.31,1116.04L2425.7,1167.6L2439.21,1107.06L2429.68,1171.44L2512.2,1146.97" style="fill:none;stroke:black;stroke-width:22.92px;"/>
        <g transform="matrix(1,0,0,1,-6.97085,357.914)">
            <path d="M2429.68,1171.44L2372.31,1116.04L2425.7,1167.6L2439.21,1107.06L2429.68,1171.44L2512.2,1146.97" style="fill:none;stroke:black;stroke-width:22.92px;"/>
        </g>
        <g transform="matrix(1,0,0,1,-1042.62,-12.5588)">
            <path d="M2429.68,1171.44L2372.31,1116.04L2425.7,1167.6L2439.21,1107.06L2429.68,1171.44L2512.2,1146.97" style="fill:none;stroke:black;stroke-width:22.92px;"/>
        </g>
        <g transform="matrix(1,0,0,1,-699.102,381.498)">
            <path d="M2429.68,1171.44L2372.31,1116.04L2425.7,1167.6L2439.21,1107.06L2429.68,1171.44L2512.2,1146.97" style="fill:none;stroke:black;stroke-width:22.92px;"/>
        </g>
        <g transform="matrix(1,0,0,1,-570.798,-34.4959)">
            <path d="M2429.68,1171.44L2372.31,1116.04L2425.7,1167.6L2439.21,1107.06L2429.68,1171.44L2512.2,1146.97" style="fill:none;stroke:black;stroke-width:22.92px;"/>
        </g>
        <path d="M1117.47,1527.12L1070.31,1490.67L1117.47,1527.12Z" style="fill:none;stroke:black;stroke-width:22.92px;"/>
        <path d="M1126.28,1486.75L1117.47,1527.12L1218.36,1489.75" style="fill:none;stroke:black;stroke-width:22.92px;"/>
        <g transform="matrix(1,0,0,0.754,209.32,209.524)">
            <path d="M1644.88,479.534L1254.54,457.655L1301.64,662.303L1420.3,593.981L1492.95,656.764L1539.25,561.253L1574.34,616.313L1591.34,567.194L1618.77,567.194L1644.88,479.534Z" style="fill:rgb(45,0,98);stroke:black;stroke-width:25.88px;"/>
        </g>
        <g transform="matrix(-0.866481,0,0,0.674973,3491.37,253.573)">
            <path d="M1644.88,479.534L1254.54,457.655L1301.64,662.303L1420.3,593.981L1492.95,656.764L1539.25,561.253L1574.34,616.313L1591.34,567.194L1618.77,567.194L1644.88,479.534Z" style="fill:rgb(45,0,98);stroke:black;stroke-width:29.51px;"/>
        </g>
        <g transform="matrix(1.59241,0,0,1.11829,-850.591,16.2918)">
            <ellipse cx="1752.06" cy="564.077" rx="122.171" ry="117.732" style="fill:rgb(30,0,65);"/>
            <clipPath id="_clip1">
                <ellipse cx="1752.06" cy="564.077" rx="122.171" ry="117.732"/>
            </clipPath>
            <g clip-path="url(#_clip1)">
                <g transform="matrix(0.627979,0,0,0.984962,726.19,20.4222)">
                    <ellipse cx="1694.1" cy="559.58" rx="23.149" ry="20.851" style="fill:white;stroke:black;stroke-width:21.78px;"/>
                </g>
                <g transform="matrix(0.627979,0,0,0.984962,665.602,19.452)">
                    <ellipse cx="1694.1" cy="559.58" rx="23.149" ry="20.851" style="fill:white;stroke:black;stroke-width:21.78px;"/>
                </g>
            </g>
            <ellipse cx="1752.06" cy="564.077" rx="122.171" ry="117.732" style="fill:none;stroke:black;stroke-width:16.66px;"/>
        </g>
        <path d="M1838.8,710.662L2044.7,718.985L2033.46,774.849L2009.33,717.555L1879.58,712.31L1850.67,775.43L1838.8,710.662Z" style="fill:white;stroke:black;stroke-width:22.92px;"/>
    </g>
</svg>
