<?xml version="1.0" encoding="UTF-8" standalone="no"?>
<!DOCTYPE svg PUBLIC "-//W3C//DTD SVG 1.1//EN" "http://www.w3.org/Graphics/SVG/1.1/DTD/svg11.dtd">
<svg width="100%" height="100%" viewBox="0 0 2181 803" version="1.1" xmlns="http://www.w3.org/2000/svg" xmlns:xlink="http://www.w3.org/1999/xlink" xml:space="preserve" xmlns:serif="http://www.serif.com/" style="fill-rule:evenodd;clip-rule:evenodd;stroke-linecap:round;stroke-linejoin:round;stroke-miterlimit:1.5;">
    <g transform="matrix(1,0,0,1,-725.136,-817.263)">
        <path d="M2905.75,1110L1327.85,1110L725.136,1620L2539.54,1620L2905.75,1110Z" style="fill:rgb(0,65,31);"/>
        <path d="M2429.68,1171.44L2372.31,1116.04L2425.7,1167.6L2439.21,1107.06L2429.68,1171.44L2512.2,1146.97" style="fill:none;stroke:black;stroke-width:22.92px;"/>
        <g transform="matrix(1,0,0,1,-6.97085,357.914)">
            <path d="M2429.68,1171.44L2372.31,1116.04L2425.7,1167.6L2439.21,1107.06L2429.68,1171.44L2512.2,1146.97" style="fill:none;stroke:black;stroke-width:22.92px;"/>
        </g>
        <g transform="matrix(1,0,0,1,-1042.62,-12.5588)">
            <path d="M2429.68,1171.44L2372.31,1116.04L2425.7,1167.6L2439.21,1107.06L2429.68,1171.44L2512.2,1146.97" style="fill:none;stroke:black;stroke-width:22.92px;"/>
        </g>
        <g transform="matrix(1,0,0,1,-699.102,381.498)">
            <path d="M2429.68,1171.44L2372.31,1116.04L2425.7,1167.6L2439.21,1107.06L2429.68,1171.44L2512.2,1146.97" style="fill:none;stroke:black;stroke-width:22.92px;"/>
        </g>
        <g transform="matrix(1,0,0,1,-570.798,-34.4959)">
            <path d="M2429.68,1171.44L2372.31,1116.04L2425.7,1167.6L2439.21,1107.06L2429.68,1171.44L2512.2,1146.97" style="fill:none;stroke:black;stroke-width:22.92px;"/>
        </g>
        <path d="M1117.47,1527.12L1070.31,1490.67L1117.47,1527.12Z" style="fill:none;stroke:black;stroke-width:22.92px;"/>
        <path d="M1126.28,1486.75L1117.47,1527.12L1218.36,1489.75" style="fill:none;stroke:black;stroke-width:22.92px;"/>
        <path d="M2155.77,1268.81C2155.77,1255.14 2144.68,1244.05 2131.01,1244.05L1581.8,1244.05C1568.13,1244.05 1557.04,1255.14 1557.04,1268.81L1557.04,1318.33C1557.04,1331.99 1568.13,1343.09 1581.8,1343.09L2131.01,1343.09C2144.68,1343.09 2155.77,1331.99 2155.77,1318.33L2155.77,1268.81Z" style="fill:rgb(96,56,0);stroke:black;stroke-width:33.33px;"/>
        <g transform="matrix(0.663424,-0.435246,0.548546,0.836121,-105.39,1024.4)">
            <path d="M2155.77,1268.81C2155.77,1255.14 2141.79,1244.05 2124.57,1244.05L1588.25,1244.05C1571.02,1244.05 1557.04,1255.14 1557.04,1268.81L1557.04,1318.33C1557.04,1331.99 1571.02,1343.09 1588.25,1343.09L2124.57,1343.09C2141.79,1343.09 2155.77,1331.99 2155.77,1318.33L2155.77,1268.81Z" style="fill:rgb(96,56,0);stroke:black;stroke-width:36.93px;"/>
        </g>
        <g transform="matrix(0.668949,0.426706,-0.537782,0.843084,1297.69,-595.945)">
            <path d="M2155.77,1268.81C2155.77,1255.14 2141.79,1244.05 2124.57,1244.05L1588.25,1244.05C1571.02,1244.05 1557.04,1255.14 1557.04,1268.81L1557.04,1318.33C1557.04,1331.99 1571.02,1343.09 1588.25,1343.09L2124.57,1343.09C2141.79,1343.09 2155.77,1331.99 2155.77,1318.33L2155.77,1268.81Z" style="fill:rgb(96,56,0);stroke:black;stroke-width:36.93px;"/>
        </g>
        <g transform="matrix(1.21017,0,0,1.19162,-401.418,-260.341)">
            <path d="M1859.12,918.302L1893.68,1028.38L1960.28,994.362L1949.6,1070.42L2061.44,1070.42L1970.96,1138.45L2022.8,1193.49L1949.6,1206.48L1984.16,1316.56L1893.68,1248.53L1859.12,1316.56L1824.55,1248.53L1734.07,1316.56L1768.63,1206.48L1695.43,1193.49L1747.27,1138.45L1656.79,1070.42L1768.63,1070.42L1757.95,994.362L1824.55,1028.38L1859.12,918.302Z" style="fill:rgb(255,47,0);stroke:black;stroke-width:27.76px;"/>
        </g>
        <g transform="matrix(0.706012,0,0,0.649128,542.692,372.181)">
            <path d="M1859.12,918.302L1893.68,1028.38L1960.28,994.362L1949.6,1070.42L2061.44,1070.42L1970.96,1138.45L2022.8,1193.49L1949.6,1206.48L1984.16,1316.56L1893.68,1248.53L1859.12,1316.56L1824.55,1248.53L1734.07,1316.56L1768.63,1206.48L1695.43,1193.49L1747.27,1138.45L1656.79,1070.42L1768.63,1070.42L1757.95,994.362L1824.55,1028.38L1859.12,918.302Z" style="fill:rgb(255,199,0);"/>
        </g>
    </g>
</svg>
