<?xml version="1.0" encoding="UTF-8" standalone="no"?>
<!DOCTYPE svg PUBLIC "-//W3C//DTD SVG 1.1//EN" "http://www.w3.org/Graphics/SVG/1.1/DTD/svg11.dtd">
<svg width="100%" height="100%" viewBox="0 0 2937 1741" version="1.1" xmlns="http://www.w3.org/2000/svg" xmlns:xlink="http://www.w3.org/1999/xlink" xml:space="preserve" xmlns:serif="http://www.serif.com/" style="fill-rule:evenodd;clip-rule:evenodd;stroke-linecap:round;stroke-linejoin:round;stroke-miterlimit:1.5;">
    <g transform="matrix(1,0,0,1,-325.335,-145.437)">
        <g transform="matrix(1,0,0,1.44833,0,-726.287)">
            <path d="M2905.75,1110L1327.85,1110L725.136,1620L2539.54,1620L2905.75,1110Z" style="fill:rgb(0,65,31);"/>
        </g>
        <path d="M2429.68,1171.44L2372.31,1116.04L2425.7,1167.6L2439.21,1107.06L2429.68,1171.44L2512.2,1146.97" style="fill:none;stroke:black;stroke-width:22.92px;"/>
        <g transform="matrix(1,0,0,1,-6.97085,357.914)">
            <path d="M2429.68,1171.44L2372.31,1116.04L2425.7,1167.6L2439.21,1107.06L2429.68,1171.44L2512.2,1146.97" style="fill:none;stroke:black;stroke-width:22.92px;"/>
        </g>
        <g transform="matrix(1,0,0,1,-1042.62,-12.5588)">
            <path d="M2429.68,1171.44L2372.31,1116.04L2425.7,1167.6L2439.21,1107.06L2429.68,1171.44L2512.2,1146.97" style="fill:none;stroke:black;stroke-width:22.92px;"/>
        </g>
        <g transform="matrix(1,0,0,1,-699.102,381.498)">
            <path d="M2429.68,1171.44L2372.31,1116.04L2425.7,1167.6L2439.21,1107.06L2429.68,1171.44L2512.2,1146.97" style="fill:none;stroke:black;stroke-width:22.92px;"/>
        </g>
        <g transform="matrix(1,0,0,1,-570.798,-34.4959)">
            <path d="M2429.68,1171.44L2372.31,1116.04L2425.7,1167.6L2439.21,1107.06L2429.68,1171.44L2512.2,1146.97" style="fill:none;stroke:black;stroke-width:22.92px;"/>
        </g>
        <g transform="matrix(1,0,0,1,-741.223,-205.317)">
            <path d="M2429.68,1171.44L2372.31,1116.04L2425.7,1167.6L2439.21,1107.06L2429.68,1171.44L2512.2,1146.97" style="fill:none;stroke:black;stroke-width:22.92px;"/>
        </g>
        <g transform="matrix(1,0,0,1,-1061.54,-230.833)">
            <path d="M2429.68,1171.44L2372.31,1116.04L2425.7,1167.6L2439.21,1107.06L2429.68,1171.44L2512.2,1146.97" style="fill:none;stroke:black;stroke-width:22.92px;"/>
        </g>
        <g transform="matrix(1,0,0,1,-303.418,183.145)">
            <path d="M2429.68,1171.44L2372.31,1116.04L2425.7,1167.6L2439.21,1107.06L2429.68,1171.44L2512.2,1146.97" style="fill:none;stroke:black;stroke-width:22.92px;"/>
        </g>
        <path d="M1117.47,1527.12L1070.31,1490.67L1117.47,1527.12Z" style="fill:none;stroke:black;stroke-width:22.92px;"/>
        <path d="M1126.28,1486.75L1117.47,1527.12L1218.36,1489.75" style="fill:none;stroke:black;stroke-width:22.92px;"/>
        <g>
            <g transform="matrix(0.733692,0,0,1,307.978,-45.1611)">
                <rect x="897.047" y="970.099" width="216.052" height="436.822" style="fill:rgb(107,62,15);stroke:black;stroke-width:33.26px;"/>
            </g>
            <path d="M791.787,952.022L1305.49,945.308L1151.56,752.06L1348.52,747.065L1154.4,540.696L1345.64,535.701L1027.6,236.259L714.814,544.639L894.047,539.405L727.735,739.606L902.956,739.814L791.787,952.022Z" style="fill:rgb(0,70,10);stroke:black;stroke-width:29.17px;"/>
        </g>
        <g transform="matrix(1,0,0,1,-196.426,171.169)">
            <g transform="matrix(0.733692,0,0,1,307.978,-45.1611)">
                <rect x="897.047" y="970.099" width="216.052" height="436.822" style="fill:rgb(107,62,15);stroke:black;stroke-width:33.26px;"/>
            </g>
            <path d="M791.787,952.022L1305.49,945.308L1151.56,752.06L1348.52,747.065L1154.4,540.696L1345.64,535.701L1027.6,236.259L714.814,544.639L894.047,539.405L727.735,739.606L902.956,739.814L791.787,952.022Z" style="fill:rgb(0,70,10);stroke:black;stroke-width:29.17px;"/>
        </g>
        <g transform="matrix(1,0,0,1,-196.426,171.169)">
            <g transform="matrix(0.733692,0,0,1,307.978,-45.1611)">
                <rect x="897.047" y="970.099" width="216.052" height="436.822" style="fill:rgb(107,62,15);stroke:black;stroke-width:33.26px;"/>
            </g>
            <path d="M791.787,952.022L1305.49,945.308L1151.56,752.06L1348.52,747.065L1154.4,540.696L1345.64,535.701L1027.6,236.259L714.814,544.639L894.047,539.405L727.735,739.606L902.956,739.814L791.787,952.022Z" style="fill:rgb(0,70,10);stroke:black;stroke-width:29.17px;"/>
        </g>
        <g transform="matrix(1,0,0,1,1683.28,-76.2384)">
            <g transform="matrix(0.733692,0,0,1,307.978,-45.1611)">
                <rect x="897.047" y="970.099" width="216.052" height="436.822" style="fill:rgb(107,62,15);stroke:black;stroke-width:33.26px;"/>
            </g>
            <path d="M791.787,952.022L1305.49,945.308L1151.56,752.06L1348.52,747.065L1154.4,540.696L1345.64,535.701L1027.6,236.259L714.814,544.639L894.047,539.405L727.735,739.606L902.956,739.814L791.787,952.022Z" style="fill:rgb(0,70,10);stroke:black;stroke-width:29.17px;"/>
        </g>
        <g transform="matrix(1,0,0,1,1811.66,194.996)">
            <g transform="matrix(0.733692,0,0,1,307.978,-45.1611)">
                <rect x="897.047" y="970.099" width="216.052" height="436.822" style="fill:rgb(107,62,15);stroke:black;stroke-width:33.26px;"/>
            </g>
            <path d="M791.787,952.022L1305.49,945.308L1151.56,752.06L1348.52,747.065L1154.4,540.696L1345.64,535.701L1027.6,236.259L714.814,544.639L894.047,539.405L727.735,739.606L902.956,739.814L791.787,952.022Z" style="fill:rgb(0,70,10);stroke:black;stroke-width:29.17px;"/>
        </g>
        <g transform="matrix(1,0,0,1,1607.16,425.36)">
            <g transform="matrix(0.733692,0,0,1,307.978,-45.1611)">
                <rect x="897.047" y="970.099" width="216.052" height="436.822" style="fill:rgb(107,62,15);stroke:black;stroke-width:33.26px;"/>
            </g>
            <path d="M791.787,952.022L1305.49,945.308L1151.56,752.06L1348.52,747.065L1154.4,540.696L1345.64,535.701L1027.6,236.259L714.814,544.639L894.047,539.405L727.735,739.606L902.956,739.814L791.787,952.022Z" style="fill:rgb(0,70,10);stroke:black;stroke-width:29.17px;"/>
        </g>
        <g transform="matrix(1,0,0,1,1898.91,505.502)">
            <g transform="matrix(0.733692,0,0,1,307.978,-45.1611)">
                <rect x="897.047" y="970.099" width="216.052" height="436.822" style="fill:rgb(107,62,15);stroke:black;stroke-width:33.26px;"/>
            </g>
            <path d="M791.787,952.022L1305.49,945.308L1151.56,752.06L1348.52,747.065L1154.4,540.696L1345.64,535.701L1027.6,236.259L714.814,544.639L894.047,539.405L727.735,739.606L902.956,739.814L791.787,952.022Z" style="fill:rgb(0,70,10);stroke:black;stroke-width:29.17px;"/>
        </g>
        <g transform="matrix(1,0,0,1,-374.895,469.607)">
            <g transform="matrix(0.733692,0,0,1,307.978,-45.1611)">
                <rect x="897.047" y="970.099" width="216.052" height="436.822" style="fill:rgb(107,62,15);stroke:black;stroke-width:33.26px;"/>
            </g>
            <path d="M791.787,952.022L1305.49,945.308L1151.56,752.06L1348.52,747.065L1154.4,540.696L1345.64,535.701L1027.6,236.259L714.814,544.639L894.047,539.405L727.735,739.606L902.956,739.814L791.787,952.022Z" style="fill:rgb(0,70,10);stroke:black;stroke-width:29.17px;"/>
        </g>
        <g transform="matrix(1,0,0,1,-117.715,509.306)">
            <g transform="matrix(0.733692,0,0,1,307.978,-45.1611)">
                <rect x="897.047" y="970.099" width="216.052" height="436.822" style="fill:rgb(107,62,15);stroke:black;stroke-width:33.26px;"/>
            </g>
            <path d="M791.787,952.022L1305.49,945.308L1151.56,752.06L1348.52,747.065L1154.4,540.696L1345.64,535.701L1027.6,236.259L714.814,544.639L894.047,539.405L727.735,739.606L902.956,739.814L791.787,952.022Z" style="fill:rgb(0,70,10);stroke:black;stroke-width:29.17px;"/>
        </g>
        <rect x="1511.59" y="296.874" width="743.841" height="394.839" style="fill:rgb(224,224,224);stroke:black;stroke-width:29.17px;"/>
        <g transform="matrix(0.887202,0,0,2.7809,166.901,-585.691)">
            <text x="1580.63px" y="406.196px" style="font-family:'Chalkduster', cursive;font-size:50px;">wel<tspan x="1673.67px 1703.56px 1741.02px 1792.84px 1823.84px 1848.7px 1869.3px 1905.22px " y="406.196px 406.196px 406.196px 406.196px 406.196px 406.196px 406.196px 406.196px ">come to </tspan>civi<tspan x="2032.62px 2056.65px 2076.38px 2108.86px 2139.91px 2163.01px 2182.73px 2219.91px 2256.6px " y="406.196px 406.196px 406.196px 406.196px 406.196px 406.196px 406.196px 406.196px 406.196px ">lization!</tspan></text>
        </g>
        <path d="M1518.99,697.166L1532.06,1125.32L1564.27,1111.38L1564.49,703.473L1518.99,697.166Z" style="fill:rgb(30,20,208);stroke:black;stroke-width:29.17px;"/>
        <g transform="matrix(1,0,0,1,681.24,-1.32096)">
            <path d="M1518.99,697.166L1532.06,1125.32L1564.27,1111.38L1564.49,703.473L1518.99,697.166Z" style="fill:rgb(13,0,255);stroke:black;stroke-width:29.17px;"/>
        </g>
    </g>
</svg>
